<mxfile host="app.diagrams.net" agent="Mozilla/5.0 (Windows NT 10.0; Win64; x64) AppleWebKit/537.36 (KHTML, like Gecko) Chrome/140.0.0.0 Safari/537.36" version="28.2.8">
  <diagram name="Page-1" id="YLTUQEAUW5ScnSTxcCmF">
    <mxGraphModel dx="1303" dy="623" grid="1" gridSize="10" guides="1" tooltips="1" connect="1" arrows="1" fold="1" page="1" pageScale="1" pageWidth="827" pageHeight="1169" math="0" shadow="0">
      <root>
        <mxCell id="0" />
        <mxCell id="1" parent="0" />
        <mxCell id="gjPWYdmN5yfiN8sqUMY3-27" value="User" style="shape=umlActor;verticalLabelPosition=bottom;verticalAlign=top;html=1;outlineConnect=0;" vertex="1" parent="1">
          <mxGeometry x="20" y="360" width="30" height="60" as="geometry" />
        </mxCell>
        <mxCell id="gjPWYdmN5yfiN8sqUMY3-28" value="New&amp;nbsp;&lt;div&gt;User&lt;/div&gt;" style="shape=umlActor;verticalLabelPosition=bottom;verticalAlign=top;html=1;outlineConnect=0;" vertex="1" parent="1">
          <mxGeometry x="110" y="450" width="30" height="60" as="geometry" />
        </mxCell>
        <mxCell id="gjPWYdmN5yfiN8sqUMY3-29" value="Registered&amp;nbsp;&lt;div&gt;User&lt;/div&gt;" style="shape=umlActor;verticalLabelPosition=bottom;verticalAlign=top;html=1;outlineConnect=0;" vertex="1" parent="1">
          <mxGeometry x="110" y="230" width="30" height="60" as="geometry" />
        </mxCell>
        <mxCell id="gjPWYdmN5yfiN8sqUMY3-36" value="Admin" style="shape=umlActor;verticalLabelPosition=bottom;verticalAlign=top;html=1;outlineConnect=0;" vertex="1" parent="1">
          <mxGeometry x="240" y="130" width="30" height="60" as="geometry" />
        </mxCell>
        <mxCell id="gjPWYdmN5yfiN8sqUMY3-39" value="Player" style="shape=umlActor;verticalLabelPosition=bottom;verticalAlign=top;html=1;outlineConnect=0;" vertex="1" parent="1">
          <mxGeometry x="240" y="260" width="30" height="60" as="geometry" />
        </mxCell>
        <mxCell id="gjPWYdmN5yfiN8sqUMY3-40" value="" style="rounded=1;whiteSpace=wrap;html=1;" vertex="1" parent="1">
          <mxGeometry x="360" y="40" width="260" height="630" as="geometry" />
        </mxCell>
        <mxCell id="gjPWYdmN5yfiN8sqUMY3-42" value="Game Tornament System" style="text;html=1;whiteSpace=wrap;strokeColor=none;fillColor=none;align=center;verticalAlign=middle;rounded=0;" vertex="1" parent="1">
          <mxGeometry x="365" y="40" width="250" height="30" as="geometry" />
        </mxCell>
        <mxCell id="gjPWYdmN5yfiN8sqUMY3-43" value="Client Register" style="ellipse;whiteSpace=wrap;html=1;" vertex="1" parent="1">
          <mxGeometry x="430" y="585" width="120" height="50" as="geometry" />
        </mxCell>
        <mxCell id="gjPWYdmN5yfiN8sqUMY3-45" value="Manage&amp;nbsp;&lt;div&gt;Tournament/Player&lt;/div&gt;" style="ellipse;whiteSpace=wrap;html=1;" vertex="1" parent="1">
          <mxGeometry x="430" y="90" width="120" height="50" as="geometry" />
        </mxCell>
        <mxCell id="gjPWYdmN5yfiN8sqUMY3-47" value="Enter&lt;div&gt;Results&lt;/div&gt;" style="ellipse;whiteSpace=wrap;html=1;" vertex="1" parent="1">
          <mxGeometry x="430" y="170" width="120" height="50" as="geometry" />
        </mxCell>
        <mxCell id="gjPWYdmN5yfiN8sqUMY3-48" value="Register/Withdraw&lt;div&gt;Tornament&lt;/div&gt;" style="ellipse;whiteSpace=wrap;html=1;" vertex="1" parent="1">
          <mxGeometry x="430" y="250" width="120" height="50" as="geometry" />
        </mxCell>
        <mxCell id="gjPWYdmN5yfiN8sqUMY3-49" value="Check&amp;nbsp;&lt;div&gt;Profil&lt;/div&gt;" style="ellipse;whiteSpace=wrap;html=1;" vertex="1" parent="1">
          <mxGeometry x="430" y="330" width="120" height="50" as="geometry" />
        </mxCell>
        <mxCell id="gjPWYdmN5yfiN8sqUMY3-51" value="Check&amp;nbsp;&lt;div&gt;Result&amp;nbsp;&lt;/div&gt;&lt;div&gt;Match&lt;span style=&quot;background-color: transparent; text-wrap-mode: nowrap; color: rgba(0, 0, 0, 0); font-family: monospace; font-size: 0px; text-align: start;&quot;&gt;%3CmxGraphModel%3E%3Croot%3E%3CmxCell%20id%3D%220%22%2F%3E%3CmxCell%20id%3D%221%22%20parent%3D%220%22%2F%3E%3CmxCell%20id%3D%222%22%20value%3D%22Enter%26lt%3Bdiv%26gt%3BResults%26lt%3B%2Fdiv%26gt%3B%22%20style%3D%22ellipse%3BwhiteSpace%3Dwrap%3Bhtml%3D1%3B%22%20vertex%3D%221%22%20parent%3D%221%22%3E%3CmxGeometry%20x%3D%22430%22%20y%3D%22340%22%20width%3D%22120%22%20height%3D%2250%22%20as%3D%22geometry%22%2F%3E%3C%2FmxCell%3E%3C%2Froot%3E%3C%2FmxGraphModel%3&lt;/span&gt;&lt;span style=&quot;background-color: transparent; text-wrap-mode: nowrap; color: light-dark(rgba(0, 0, 0, 0), rgba(237, 237, 237, 0)); font-family: monospace; font-size: 0px; text-align: start;&quot;&gt;atch&lt;/span&gt;&lt;/div&gt;" style="ellipse;whiteSpace=wrap;html=1;" vertex="1" parent="1">
          <mxGeometry x="430" y="410" width="120" height="50" as="geometry" />
        </mxCell>
        <mxCell id="gjPWYdmN5yfiN8sqUMY3-52" value="Check&lt;div&gt;Ranking&lt;/div&gt;&lt;div&gt;Tornment&lt;/div&gt;" style="ellipse;whiteSpace=wrap;html=1;" vertex="1" parent="1">
          <mxGeometry x="430" y="500" width="120" height="50" as="geometry" />
        </mxCell>
        <mxCell id="gjPWYdmN5yfiN8sqUMY3-53" value="" style="edgeStyle=none;orthogonalLoop=1;jettySize=auto;html=1;rounded=0;entryX=1;entryY=0.3333333333333333;entryDx=0;entryDy=0;entryPerimeter=0;exitX=0;exitY=0.3333333333333333;exitDx=0;exitDy=0;exitPerimeter=0;" edge="1" parent="1" source="gjPWYdmN5yfiN8sqUMY3-29" target="gjPWYdmN5yfiN8sqUMY3-27">
          <mxGeometry width="100" relative="1" as="geometry">
            <mxPoint x="100" y="250" as="sourcePoint" />
            <mxPoint x="60" y="370" as="targetPoint" />
            <Array as="points" />
          </mxGeometry>
        </mxCell>
        <mxCell id="gjPWYdmN5yfiN8sqUMY3-54" value="" style="edgeStyle=none;orthogonalLoop=1;jettySize=auto;html=1;rounded=0;entryX=1;entryY=0.3333333333333333;entryDx=0;entryDy=0;entryPerimeter=0;exitX=0;exitY=0.3333333333333333;exitDx=0;exitDy=0;exitPerimeter=0;" edge="1" parent="1" source="gjPWYdmN5yfiN8sqUMY3-28" target="gjPWYdmN5yfiN8sqUMY3-27">
          <mxGeometry width="100" relative="1" as="geometry">
            <mxPoint x="90" y="470" as="sourcePoint" />
            <mxPoint x="60" y="400" as="targetPoint" />
            <Array as="points" />
          </mxGeometry>
        </mxCell>
        <mxCell id="gjPWYdmN5yfiN8sqUMY3-56" value="" style="endArrow=none;html=1;rounded=0;exitX=1;exitY=0.3333333333333333;exitDx=0;exitDy=0;exitPerimeter=0;" edge="1" parent="1" source="gjPWYdmN5yfiN8sqUMY3-36" target="gjPWYdmN5yfiN8sqUMY3-43">
          <mxGeometry width="50" height="50" relative="1" as="geometry">
            <mxPoint x="430" y="290" as="sourcePoint" />
            <mxPoint x="340" y="600" as="targetPoint" />
          </mxGeometry>
        </mxCell>
        <mxCell id="gjPWYdmN5yfiN8sqUMY3-57" value="" style="endArrow=none;html=1;rounded=0;exitX=1;exitY=0.3333333333333333;exitDx=0;exitDy=0;exitPerimeter=0;" edge="1" parent="1" source="gjPWYdmN5yfiN8sqUMY3-39" target="gjPWYdmN5yfiN8sqUMY3-43">
          <mxGeometry width="50" height="50" relative="1" as="geometry">
            <mxPoint x="290" y="210" as="sourcePoint" />
            <mxPoint x="498" y="645" as="targetPoint" />
          </mxGeometry>
        </mxCell>
        <mxCell id="gjPWYdmN5yfiN8sqUMY3-58" value="" style="edgeStyle=none;orthogonalLoop=1;jettySize=auto;html=1;rounded=0;entryX=1;entryY=0.3333333333333333;entryDx=0;entryDy=0;entryPerimeter=0;exitX=0;exitY=0.3333333333333333;exitDx=0;exitDy=0;exitPerimeter=0;" edge="1" parent="1" source="gjPWYdmN5yfiN8sqUMY3-36" target="gjPWYdmN5yfiN8sqUMY3-29">
          <mxGeometry width="100" relative="1" as="geometry">
            <mxPoint x="220" y="240" as="sourcePoint" />
            <mxPoint x="160" y="370" as="targetPoint" />
            <Array as="points" />
          </mxGeometry>
        </mxCell>
        <mxCell id="gjPWYdmN5yfiN8sqUMY3-59" value="" style="edgeStyle=none;orthogonalLoop=1;jettySize=auto;html=1;rounded=0;entryX=1;entryY=0.3333333333333333;entryDx=0;entryDy=0;entryPerimeter=0;" edge="1" parent="1" target="gjPWYdmN5yfiN8sqUMY3-29">
          <mxGeometry width="100" relative="1" as="geometry">
            <mxPoint x="240" y="280" as="sourcePoint" />
            <mxPoint x="190" y="400" as="targetPoint" />
            <Array as="points" />
          </mxGeometry>
        </mxCell>
        <mxCell id="gjPWYdmN5yfiN8sqUMY3-60" value="" style="endArrow=none;html=1;rounded=0;exitX=1;exitY=0.3333333333333333;exitDx=0;exitDy=0;exitPerimeter=0;" edge="1" parent="1" source="gjPWYdmN5yfiN8sqUMY3-28" target="gjPWYdmN5yfiN8sqUMY3-43">
          <mxGeometry width="50" height="50" relative="1" as="geometry">
            <mxPoint x="440" y="510" as="sourcePoint" />
            <mxPoint x="490" y="460" as="targetPoint" />
          </mxGeometry>
        </mxCell>
        <mxCell id="gjPWYdmN5yfiN8sqUMY3-62" value="" style="endArrow=none;html=1;rounded=0;entryX=0.037;entryY=0.367;entryDx=0;entryDy=0;entryPerimeter=0;" edge="1" parent="1" target="gjPWYdmN5yfiN8sqUMY3-45">
          <mxGeometry width="50" height="50" relative="1" as="geometry">
            <mxPoint x="270" y="150" as="sourcePoint" />
            <mxPoint x="430" y="160" as="targetPoint" />
          </mxGeometry>
        </mxCell>
        <mxCell id="gjPWYdmN5yfiN8sqUMY3-63" value="" style="endArrow=none;html=1;rounded=0;exitX=1;exitY=0.3333333333333333;exitDx=0;exitDy=0;exitPerimeter=0;" edge="1" parent="1" source="gjPWYdmN5yfiN8sqUMY3-36" target="gjPWYdmN5yfiN8sqUMY3-47">
          <mxGeometry width="50" height="50" relative="1" as="geometry">
            <mxPoint x="350" y="172" as="sourcePoint" />
            <mxPoint x="514" y="130" as="targetPoint" />
          </mxGeometry>
        </mxCell>
        <mxCell id="gjPWYdmN5yfiN8sqUMY3-64" value="" style="endArrow=none;html=1;rounded=0;exitX=1;exitY=0.3333333333333333;exitDx=0;exitDy=0;exitPerimeter=0;" edge="1" parent="1" source="gjPWYdmN5yfiN8sqUMY3-39" target="gjPWYdmN5yfiN8sqUMY3-48">
          <mxGeometry width="50" height="50" relative="1" as="geometry">
            <mxPoint x="340" y="240" as="sourcePoint" />
            <mxPoint x="506" y="274" as="targetPoint" />
          </mxGeometry>
        </mxCell>
        <mxCell id="gjPWYdmN5yfiN8sqUMY3-65" value="" style="endArrow=none;html=1;rounded=0;" edge="1" parent="1" target="gjPWYdmN5yfiN8sqUMY3-49">
          <mxGeometry width="50" height="50" relative="1" as="geometry">
            <mxPoint x="270" y="280" as="sourcePoint" />
            <mxPoint x="450" y="270" as="targetPoint" />
          </mxGeometry>
        </mxCell>
        <mxCell id="gjPWYdmN5yfiN8sqUMY3-66" value="" style="endArrow=none;html=1;rounded=0;entryX=0.3;entryY=0.102;entryDx=0;entryDy=0;entryPerimeter=0;" edge="1" parent="1" target="gjPWYdmN5yfiN8sqUMY3-51">
          <mxGeometry width="50" height="50" relative="1" as="geometry">
            <mxPoint x="270" y="280" as="sourcePoint" />
            <mxPoint x="524" y="419" as="targetPoint" />
          </mxGeometry>
        </mxCell>
        <mxCell id="gjPWYdmN5yfiN8sqUMY3-68" value="" style="endArrow=none;html=1;rounded=0;exitX=0.315;exitY=0.103;exitDx=0;exitDy=0;exitPerimeter=0;" edge="1" parent="1" source="gjPWYdmN5yfiN8sqUMY3-52">
          <mxGeometry width="50" height="50" relative="1" as="geometry">
            <mxPoint x="430" y="500" as="sourcePoint" />
            <mxPoint x="270" y="280" as="targetPoint" />
          </mxGeometry>
        </mxCell>
      </root>
    </mxGraphModel>
  </diagram>
</mxfile>
